<mxfile host="app.diagrams.net" modified="2023-08-18T09:30:03.145Z" agent="Mozilla/5.0 (Macintosh; Intel Mac OS X 10_15_7) AppleWebKit/537.36 (KHTML, like Gecko) Chrome/115.0.0.0 Safari/537.36" version="21.6.8" etag="Ah5q34Bgf6UeYoS6TLBD" type="github">
  <diagram name="第 1 页" id="FucUZQQ8vdzpzETbooIu">
    <mxGraphModel>
      <root>
        <mxCell id="0" />
        <mxCell id="1" parent="0" />
      </root>
    </mxGraphModel>
  </diagram>
</mxfile>
